<svg width="522.3499999999999px" height="94.39999999999999px" xmlns="http://www.w3.org/2000/svg" viewBox="-11.174999999999955 27.800000000000004 522.3499999999999 94.39999999999999" style="background: none;" preserveAspectRatio="xMidYMid"><defs><linearGradient id="editing-sticker-gradient" x1="0.62202099292274" y1="0.22593636270721973" x2="0.37797900707726" y2="0.7740636372927803"><stop offset="0" stop-color="#87434d"></stop><stop offset="1" stop-color="#94a9ce"></stop></linearGradient><filter id="editing-sticker" x="-100%" y="-100%" width="300%" height="300%"><feMorphology operator="erode" radius="1" in="SourceAlpha" result="alpha-erode"></feMorphology><feConvolveMatrix order="3,3" divisor="1" kernelMatrix="0 1 0 1 1 1 0 1 0" in="alpha-erode" result="alpha-round"></feConvolveMatrix><feMorphology operator="dilate" radius="3.5" in="alpha-round" result="dilate-shadow"></feMorphology><feGaussianBlur in="dilate-shadow" stdDeviation="1.5" result="shadow"></feGaussianBlur><feFlood flood-color="#fff" result="flood-sticker"></feFlood><feComposite operator="in" in="flood-sticker" in2="alpha-round" result="comp-sticker"></feComposite><feMorphology operator="dilate" radius="3" in="comp-sticker" result="morph-sticker"></feMorphology><feConvolveMatrix order="3,3" divisor="1" kernelMatrix="0 1 0 1 1 1 0 1 0" in="morph-sticker" result="sticker"></feConvolveMatrix><feMerge><feMergeNode in="shadow"></feMergeNode><feMergeNode in="sticker"></feMergeNode><feMergeNode in="SourceGraphic"></feMergeNode></feMerge></filter></defs><g filter="url(#editing-sticker)"><g transform="translate(65.7188073694706, 91.45000076293945)"><path d="M19.13-21.71L19.13-21.71L19.13-21.71Q19.83-23.12 19.83-24.44L19.83-24.44L19.83-24.44Q19.83-25.76 19.69-26.48L19.69-26.48L19.69-26.48Q19.55-27.21 19.22-27.78L19.22-27.78L19.22-27.78Q18.52-29.00 17.11-29.00L17.11-29.00L17.11-29.00Q15.37-29.00 13.96-27.73L13.96-27.73L13.96-27.73Q12.46-26.41 12.46-24.35L12.46-24.35L12.46-24.35Q12.46-23.03 13.37-22.02L13.37-22.02L13.37-22.02Q14.29-21.01 15.70-20.07L15.70-20.07L15.70-20.07Q17.11-19.13 18.71-18.19L18.71-18.19L18.71-18.19Q20.30-17.25 21.71-16.12L21.71-16.12L21.71-16.12Q24.96-13.54 24.96-10.06L24.96-10.06L24.96-10.06Q24.96-7.71 23.71-5.71L23.71-5.71L23.71-5.71Q22.47-3.71 20.40-2.26L20.40-2.26L20.40-2.26Q15.89 0.94 9.92 0.94L9.92 0.94L9.92 0.94Q5.08 0.94 2.58-0.63L2.58-0.63L2.58-0.63Q0.09-2.21 0.09-4.61L0.09-4.61L0.09-4.61Q0.09-8.88 3.43-9.96L3.43-9.96L3.43-9.96Q4.37-10.29 5.80-10.29L5.80-10.29L5.80-10.29Q7.24-10.29 8.88-9.68L8.88-9.68L8.88-9.68Q8.13-7.75 8.13-6.02L8.13-6.02L8.13-6.02Q8.13-2.26 10.81-2.26L10.81-2.26L10.81-2.26Q12.55-2.26 13.98-3.52L13.98-3.52L13.98-3.52Q15.42-4.79 15.42-6.23L15.42-6.23L15.42-6.23Q15.42-7.66 14.50-8.70L14.50-8.70L14.50-8.70Q13.58-9.73 12.22-10.55L12.22-10.55L12.22-10.55Q10.86-11.37 9.28-12.17L9.28-12.17L9.28-12.17Q7.71-12.97 6.34-14.10L6.34-14.10L6.34-14.10Q3.15-16.68 3.15-20.82L3.15-20.82L3.15-20.82Q3.15-23.50 4.46-25.59L4.46-25.59L4.46-25.59Q5.78-27.68 7.90-29.09L7.90-29.09L7.90-29.09Q12.13-31.96 17.32-31.96L17.32-31.96L17.32-31.96Q22.51-31.96 25.03-30.41L25.03-30.41L25.03-30.41Q27.54-28.86 27.54-26.23L27.54-26.23L27.54-26.23Q27.54-23.92 25.76-22.47L25.76-22.47L25.76-22.47Q24.20-21.24 22.32-21.24L22.32-21.24L22.32-21.24Q20.45-21.24 19.13-21.71ZM30.57-1.41L30.57-1.41L30.57-1.41Q29.47-2.63 28.98-4.56L28.98-4.56L28.98-4.56Q28.48-6.49 28.48-9.63L28.48-9.63L28.48-9.63Q28.48-12.78 29.56-15.65L29.56-15.65L29.56-15.65Q30.64-18.52 32.62-20.59L32.62-20.59L32.62-20.59Q36.66-24.91 43.33-24.91L43.33-24.91L43.33-24.91Q45.73-24.91 47.47-24.11L47.47-24.11L55.51-24.91L52.03-6.58L52.03-6.58Q51.89-6.02 51.89-4.98L51.89-4.98L51.89-4.98Q51.89-3.95 52.52-3.29L52.52-3.29L52.52-3.29Q53.16-2.63 54.10-2.54L54.10-2.54L54.10-2.54Q53.63-0.94 51.91 0L51.91 0L51.91 0Q50.20 0.94 48.27 0.94L48.27 0.94L48.27 0.94Q46.34 0.94 45.05 0.21L45.05 0.21L45.05 0.21Q43.76-0.52 43.38-1.74L43.38-1.74L43.38-1.74Q42.63-0.56 41.03 0.19L41.03 0.19L41.03 0.19Q39.43 0.94 37.29 0.94L37.29 0.94L37.29 0.94Q35.16 0.94 33.42 0.38L33.42 0.38L33.42 0.38Q31.68-0.19 30.57-1.41ZM40.49-20.49L40.49-20.49L40.49-20.49Q39.95-19.65 39.48-18.21L39.48-18.21L39.48-18.21Q39.01-16.78 38.23-12.95L38.23-12.95L38.23-12.95Q37.46-9.12 37.46-6.39L37.46-6.39L37.46-6.39Q37.46-3.67 37.88-2.87L37.88-2.87L37.88-2.87Q38.30-2.07 39.06-2.07L39.06-2.07L39.06-2.07Q40.56-2.07 41.67-3.50L41.67-3.50L41.67-3.50Q42.77-4.93 43.19-7.47L43.19-7.47L45.68-21.24L45.68-21.24Q44.70-22.09 43.55-22.09L43.55-22.09L43.55-22.09Q42.39-22.09 41.71-21.71L41.71-21.71L41.71-21.71Q41.03-21.34 40.49-20.49ZM77.93 0.94L77.93 0.94L77.93 0.94Q72.24 0.94 72.24-3.48L72.24-3.48L72.24-3.48Q72.29-4.70 72.66-6.77L72.66-6.77L73.51-11.09L73.51-11.09Q74.78-17.20 74.78-18.57L74.78-18.57L74.78-18.57Q74.78-21.29 73.18-21.29L73.18-21.29L73.18-21.29Q70.50-21.29 69.09-14.29L69.09-14.29L66.32 0L56.87 0.94L61.76-24.02L69.47-24.91L68.71-20.30L68.71-20.30Q70.92-24.91 77.69-24.91L77.69-24.91L77.69-24.91Q80.98-24.91 82.37-23.52L82.37-23.52L82.37-23.52Q83.75-22.14 83.75-19.04L83.75-19.04L83.75-19.04Q83.75-16.12 82.25-9.31L82.25-9.31L82.25-9.31Q81.55-6.25 81.55-5.10L81.55-5.10L81.55-5.10Q81.55-3.95 82.18-3.29L82.18-3.29L82.18-3.29Q82.81-2.63 83.75-2.54L83.75-2.54L83.75-2.54Q83.28-0.94 81.66 0L81.66 0L81.66 0Q80.04 0.94 77.93 0.94ZM89.56-1.41L89.56-1.41L89.56-1.41Q88.45-2.63 87.96-4.56L87.96-4.56L87.96-4.56Q87.47-6.49 87.47-9.63L87.47-9.63L87.47-9.63Q87.47-12.78 88.55-15.65L88.55-15.65L88.55-15.65Q89.63-18.52 91.60-20.59L91.60-20.59L91.60-20.59Q95.65-24.91 102.32-24.91L102.32-24.91L102.32-24.91Q104.72-24.91 106.45-24.11L106.45-24.11L114.49-24.91L111.01-6.58L111.01-6.58Q110.87-6.02 110.87-4.98L110.87-4.98L110.87-4.98Q110.87-3.95 111.51-3.29L111.51-3.29L111.51-3.29Q112.14-2.63 113.08-2.54L113.08-2.54L113.08-2.54Q112.61-0.94 110.90 0L110.90 0L110.90 0Q109.18 0.94 107.25 0.94L107.25 0.94L107.25 0.94Q105.33 0.94 104.03 0.21L104.03 0.21L104.03 0.21Q102.74-0.52 102.37-1.74L102.37-1.74L102.37-1.74Q101.61-0.56 100.02 0.19L100.02 0.19L100.02 0.19Q98.42 0.94 96.28 0.94L96.28 0.94L96.28 0.94Q94.14 0.94 92.40 0.38L92.40 0.38L92.40 0.38Q90.66-0.19 89.56-1.41ZM99.48-20.49L99.48-20.49L99.48-20.49Q98.94-19.65 98.47-18.21L98.47-18.21L98.47-18.21Q98.00-16.78 97.22-12.95L97.22-12.95L97.22-12.95Q96.44-9.12 96.44-6.39L96.44-6.39L96.44-6.39Q96.44-3.67 96.87-2.87L96.87-2.87L96.87-2.87Q97.29-2.07 98.04-2.07L98.04-2.07L98.04-2.07Q99.55-2.07 100.65-3.50L100.65-3.50L100.65-3.50Q101.75-4.93 102.18-7.47L102.18-7.47L104.67-21.24L104.67-21.24Q103.68-22.09 102.53-22.09L102.53-22.09L102.53-22.09Q101.38-22.09 100.70-21.71L100.70-21.71L100.70-21.71Q100.02-21.34 99.48-20.49ZM117.78-4.70L117.78-4.70L117.78-4.70Q117.78-5.97 118.44-9.16L118.44-9.16L120.93-21.86L118.16-21.86L118.35-23.27L118.35-23.27Q123.99-24.96 129.44-29.09L129.44-29.09L131.69-29.09L130.57-23.97L134.23-23.97L133.81-21.86L130.19-21.86L127.79-9.16L127.79-9.16Q127.18-6.25 127.18-5.26L127.18-5.26L127.18-5.26Q127.18-3.01 129.16-2.54L129.16-2.54L129.16-2.54Q128.69-0.94 126.99 0L126.99 0L126.99 0Q125.30 0.94 122.91 0.94L122.91 0.94L122.91 0.94Q120.51 0.94 119.15-0.56L119.15-0.56L119.15-0.56Q117.78-2.07 117.78-4.70ZM144.06 0.94L144.06 0.94L144.06 0.94Q133.72 0.94 133.72-8.79L133.72-8.79L133.72-8.79Q133.72-15.70 137.52-20.16L137.52-20.16L137.52-20.16Q141.56-24.91 148.57-24.91L148.57-24.91L148.57-24.91Q153.64-24.91 156.23-22.56L156.23-22.56L156.23-22.56Q158.81-20.21 158.81-15.28L158.81-15.28L158.81-15.28Q158.81-7.75 154.77-3.38L154.77-3.38L154.77-3.38Q150.82 0.94 144.06 0.94ZM145.28-19.50L145.28-19.50L145.28-19.50Q144.71-18.24 144.27-16.33L144.27-16.33L144.27-16.33Q143.82-14.43 143.26-11.42L143.26-11.42L143.26-11.42Q142.69-8.41 142.69-4.70L142.69-4.70L142.69-4.70Q142.69-3.48 143.09-2.68L143.09-2.68L143.09-2.68Q143.49-1.88 144.57-1.88L144.57-1.88L144.57-1.88Q145.65-1.88 146.33-2.40L146.33-2.40L146.33-2.40Q147.02-2.91 147.53-4.14L147.53-4.14L147.53-4.14Q148.47-6.30 149.23-10.32L149.23-10.32L149.23-10.32Q149.98-14.34 150.05-16.07L150.05-16.07L150.05-16.07Q150.12-17.81 150.12-19.11L150.12-19.11L150.12-19.11Q150.12-20.40 149.74-21.24L149.74-21.24L149.74-21.24Q149.37-22.09 148.31-22.09L148.31-22.09L148.31-22.09Q147.25-22.09 146.55-21.43L146.55-21.43L146.55-21.43Q145.84-20.77 145.28-19.50ZM175.64-16.50L175.64-16.50L175.64-16.50Q176.30-18.24 176.30-19.74L176.30-19.74L176.30-19.74Q176.30-22.51 174.04-22.51L174.04-22.51L174.04-22.51Q172.87-22.51 171.90-21.46L171.90-21.46L171.90-21.46Q170.94-20.40 170.94-19.08L170.94-19.08L170.94-19.08Q170.94-18.14 171.69-17.39L171.69-17.39L171.69-17.39Q172.77-16.36 175.55-14.66L175.55-14.66L175.55-14.66Q178.32-12.97 179.38-11.59L179.38-11.59L179.38-11.59Q180.43-10.20 180.43-8.30L180.43-8.30L180.43-8.30Q180.43-6.39 179.52-4.65L179.52-4.65L179.52-4.65Q178.60-2.91 176.96-1.69L176.96-1.69L176.96-1.69Q173.43 0.94 167.79 0.94L167.79 0.94L167.79 0.94Q164.74 0.94 162.39-0.66L162.39-0.66L162.39-0.66Q160.04-2.21 160.04-4.04L160.04-4.04L160.04-4.04Q160.04-5.88 161.37-6.96L161.37-6.96L161.37-6.96Q162.71-8.04 164.69-8.04L164.69-8.04L164.69-8.04Q166.66-8.04 167.88-7.29L167.88-7.29L167.88-7.29Q167.27-5.73 167.27-4.70L167.27-4.70L167.27-4.70Q167.27-1.60 169.91-1.60L169.91-1.60L169.91-1.60Q171.03-1.60 171.79-2.30L171.79-2.30L171.79-2.30Q172.54-3.01 172.54-4.23L172.54-4.23L172.54-4.23Q172.54-6.63 168.50-9.16L168.50-9.16L168.50-9.16Q165.21-11.33 164.45-12.17L164.45-12.17L164.45-12.17Q163.18-13.68 163.18-15.56L163.18-15.56L163.18-15.56Q163.18-17.44 164.08-19.22L164.08-19.22L164.08-19.22Q164.97-21.01 166.62-22.28L166.62-22.28L166.62-22.28Q170.05-24.91 176.02-24.91L176.02-24.91L176.02-24.91Q179.07-24.91 180.88-23.69L180.88-23.69L180.88-23.69Q182.69-22.47 182.69-20.40L182.69-20.40L182.69-20.40Q182.69-18.33 181.44-17.16L181.44-17.16L181.44-17.16Q180.20-15.98 177.94-15.98L177.94-15.98L177.94-15.98Q176.39-15.98 175.64-16.50ZM204.07-0.80L204.07-0.80L204.07-0.80Q199.89 0.94 194.77 0.94L194.77 0.94L194.77 0.94Q190.26 0.94 187.20-1.41L187.20-1.41L187.20-1.41Q183.86-3.90 183.86-8.32L183.86-8.32L183.86-8.32Q183.86-14.85 191.71-16.68L191.71-16.68L191.71-16.68Q190.40-20.40 190.40-22.98L190.40-22.98L190.40-22.98Q190.40-25.57 191.38-27.24L191.38-27.24L191.38-27.24Q192.37-28.91 194.06-29.99L194.06-29.99L194.06-29.99Q197.26-31.96 202.62-31.96L202.62-31.96L202.62-31.96Q206.33-31.96 208.68-30.55L208.68-30.55L208.68-30.55Q211.08-29.09 211.08-26.93L211.08-26.93L211.08-26.93Q211.08-24.49 209.39-23.12L209.39-23.12L209.39-23.12Q207.88-21.86 205.39-21.86L205.39-21.86L205.39-21.86Q203.93-21.86 203.46-22.00L203.46-22.00L203.46-22.00Q203.65-23.03 203.65-24.72L203.65-24.72L203.65-24.72Q203.65-26.41 203.09-27.57L203.09-27.57L203.09-27.57Q202.52-28.72 201.58-28.72L201.58-28.72L201.58-28.72Q199.84-28.72 199.19-27.19L199.19-27.19L199.19-27.19Q198.53-25.66 198.53-23.43L198.53-23.43L198.53-23.43Q198.53-21.20 198.97-19.15L198.97-19.15L198.97-19.15Q199.42-17.11 200.27-15.13L200.27-15.13L200.27-15.13Q202.05-11.04 204.92-8.27L204.92-8.27L204.92-8.27Q205.67-10.11 205.77-12.97L205.77-12.97L205.77-12.97Q205.77-15.51 204.03-17.01L204.03-17.01L204.03-17.01Q204.69-17.63 205.95-18.00L205.95-18.00L205.95-18.00Q207.22-18.38 208.35-18.38L208.35-18.38L208.35-18.38Q210.84-18.38 212.02-16.87L212.02-16.87L212.02-16.87Q213.19-15.37 213.19-12.97L213.19-12.97L213.19-12.97Q213.19-8.70 210.14-5.17L210.14-5.17L210.14-5.17Q211.31-4.84 212.39-4.84L212.39-4.84L212.39-4.84Q214.74-4.84 215.50-5.45L215.50-5.45L215.50-5.45Q215.87-4.56 215.87-3.38L215.87-3.38L215.87-3.38Q215.87-1.03 214.34-0.05L214.34-0.05L214.34-0.05Q212.82 0.94 210.09 0.94L210.09 0.94L210.09 0.94Q207.36 0.94 204.07-0.80ZM193.31-13.11L193.31-13.11L193.31-13.11Q192.28-12.08 192.28-10.25L192.28-10.25L192.28-10.25Q192.28-8.41 192.70-7.26L192.70-7.26L192.70-7.26Q193.12-6.11 193.78-5.26L193.78-5.26L193.78-5.26Q195.29-3.43 197.26-3.43L197.26-3.43L197.26-3.43Q199.05-3.43 200.08-3.81L200.08-3.81L200.08-3.81Q196.13-7.52 193.31-13.11ZM237.44-15.13L246.94-15.98L246.94-15.98Q243.55-8.55 243.55 0.05L243.55 0.05L243.55 0.05Q242.29 0.94 240.43 0.94L240.43 0.94L240.43 0.94Q238.57 0.94 237.40 0.07L237.40 0.07L237.40 0.07Q236.22-0.80 235.99-1.69L235.99-1.69L235.99-1.69Q234.81-0.47 232.91 0.23L232.91 0.23L232.91 0.23Q231.01 0.94 228.98 0.94L228.98 0.94L228.98 0.94Q226.96 0.94 225.20 0.28L225.20 0.28L225.20 0.28Q223.44-0.38 222.08-1.83L222.08-1.83L222.08-1.83Q219.07-5.03 219.07-11.09L219.07-11.09L219.07-11.09Q219.07-20.49 224.10-26.13L224.10-26.13L224.10-26.13Q229.27-31.96 238.43-31.96L238.43-31.96L238.43-31.96Q244.78-31.96 247.03-28.67L247.03-28.67L247.03-28.67Q247.74-27.64 247.74-26.39L247.74-26.39L247.74-26.39Q247.74-25.14 247.20-24.09L247.20-24.09L247.20-24.09Q246.66-23.03 245.81-22.18L245.81-22.18L245.81-22.18Q243.79-20.30 241.30-20.30L241.30-20.30L241.30-20.30Q240.31-20.30 239.37-20.63L239.37-20.63L239.37-20.63Q239.56-22.04 239.56-23.69L239.56-23.69L239.56-23.69Q239.56-25.33 239.44-26.09L239.44-26.09L239.44-26.09Q239.32-26.84 239.04-27.45L239.04-27.45L239.04-27.45Q238.43-28.72 237.09-28.72L237.09-28.72L237.09-28.72Q235.75-28.72 234.27-27.28L234.27-27.28L234.27-27.28Q232.79-25.85 231.62-23.50L231.62-23.50L231.62-23.50Q229.03-18.24 229.03-11.89L229.03-11.89L229.03-11.89Q229.03-8.98 230.16-6.91L230.16-6.91L230.16-6.91Q231.38-4.65 233.54-4.65L233.54-4.65L233.54-4.65Q234.30-4.65 234.98-5.03L234.98-5.03L234.98-5.03Q235.66-5.41 235.94-5.69L235.94-5.69L237.44-15.13ZM264.33-1.97L264.33-1.97L264.33-1.97Q262.07 0.94 256.48 0.94L256.48 0.94L256.48 0.94Q253.56 0.94 251.45-0.82L251.45-0.82L251.45-0.82Q249.34-2.58 249.34-5.12L249.34-5.12L249.34-5.12Q249.34-6.53 249.48-7.24L249.48-7.24L252.63-23.97L262.17-24.91L258.74-6.77L258.74-6.77Q258.55-5.73 258.55-5.12L258.55-5.12L258.55-5.12Q258.55-2.40 260.19-2.40L260.19-2.40L260.19-2.40Q262.03-2.40 263.34-4.89L263.34-4.89L263.34-4.89Q263.76-5.69 263.95-6.72L263.95-6.72L267.29-23.97L276.55-24.91L273.07-6.58L273.07-6.58Q272.93-5.88 272.93-5.12L272.93-5.12L272.93-5.12Q272.93-4.37 273.35-3.55L273.35-3.55L273.35-3.55Q273.77-2.73 275.14-2.54L275.14-2.54L275.14-2.54Q274.86-1.41 273.87-0.66L273.87-0.66L273.87-0.66Q271.80 0.94 269.57 0.94L269.57 0.94L269.57 0.94Q267.34 0.94 266.02 0.14L266.02 0.14L266.02 0.14Q264.70-0.66 264.33-1.97ZM293.14-16.50L293.14-16.50L293.14-16.50Q293.80-18.24 293.80-19.74L293.80-19.74L293.80-19.74Q293.80-22.51 291.54-22.51L291.54-22.51L291.54-22.51Q290.37-22.51 289.40-21.46L289.40-21.46L289.40-21.46Q288.44-20.40 288.44-19.08L288.44-19.08L288.44-19.08Q288.44-18.14 289.19-17.39L289.19-17.39L289.19-17.39Q290.27-16.36 293.05-14.66L293.05-14.66L293.05-14.66Q295.82-12.97 296.88-11.59L296.88-11.59L296.88-11.59Q297.93-10.20 297.93-8.30L297.93-8.30L297.93-8.30Q297.93-6.39 297.02-4.65L297.02-4.65L297.02-4.65Q296.10-2.91 294.46-1.69L294.46-1.69L294.46-1.69Q290.93 0.94 285.29 0.94L285.29 0.94L285.29 0.94Q282.24 0.94 279.89-0.66L279.89-0.66L279.89-0.66Q277.54-2.21 277.54-4.04L277.54-4.04L277.54-4.04Q277.54-5.88 278.87-6.96L278.87-6.96L278.87-6.96Q280.21-8.04 282.19-8.04L282.19-8.04L282.19-8.04Q284.16-8.04 285.38-7.29L285.38-7.29L285.38-7.29Q284.77-5.73 284.77-4.70L284.77-4.70L284.77-4.70Q284.77-1.60 287.41-1.60L287.41-1.60L287.41-1.60Q288.53-1.60 289.29-2.30L289.29-2.30L289.29-2.30Q290.04-3.01 290.04-4.23L290.04-4.23L290.04-4.23Q290.04-6.63 286.00-9.16L286.00-9.16L286.00-9.16Q282.71-11.33 281.95-12.17L281.95-12.17L281.95-12.17Q280.68-13.68 280.68-15.56L280.68-15.56L280.68-15.56Q280.68-17.44 281.58-19.22L281.58-19.22L281.58-19.22Q282.47-21.01 284.12-22.28L284.12-22.28L284.12-22.28Q287.55-24.91 293.52-24.91L293.52-24.91L293.52-24.91Q296.57-24.91 298.38-23.69L298.38-23.69L298.38-23.69Q300.19-22.47 300.19-20.40L300.19-20.40L300.19-20.40Q300.19-18.33 298.94-17.16L298.94-17.16L298.94-17.16Q297.70-15.98 295.44-15.98L295.44-15.98L295.44-15.98Q293.89-15.98 293.14-16.50ZM302.68-4.70L302.68-4.70L302.68-4.70Q302.68-5.97 303.34-9.16L303.34-9.16L305.83-21.86L303.06-21.86L303.24-23.27L303.24-23.27Q308.88-24.96 314.34-29.09L314.34-29.09L316.59-29.09L315.46-23.97L319.13-23.97L318.71-21.86L315.09-21.86L312.69-9.16L312.69-9.16Q312.08-6.25 312.08-5.26L312.08-5.26L312.08-5.26Q312.08-3.01 314.05-2.54L314.05-2.54L314.05-2.54Q313.58-0.94 311.89 0L311.89 0L311.89 0Q310.20 0.94 307.80 0.94L307.80 0.94L307.80 0.94Q305.41 0.94 304.04-0.56L304.04-0.56L304.04-0.56Q302.68-2.07 302.68-4.70ZM328.95 0.94L328.95 0.94L328.95 0.94Q318.61 0.94 318.61-8.79L318.61-8.79L318.61-8.79Q318.61-15.70 322.42-20.16L322.42-20.16L322.42-20.16Q326.46-24.91 333.47-24.91L333.47-24.91L333.47-24.91Q338.54-24.91 341.13-22.56L341.13-22.56L341.13-22.56Q343.71-20.21 343.71-15.28L343.71-15.28L343.71-15.28Q343.71-7.75 339.67-3.38L339.67-3.38L339.67-3.38Q335.72 0.94 328.95 0.94ZM330.18-19.50L330.18-19.50L330.18-19.50Q329.61-18.24 329.16-16.33L329.16-16.33L329.16-16.33Q328.72-14.43 328.15-11.42L328.15-11.42L328.15-11.42Q327.59-8.41 327.59-4.70L327.59-4.70L327.59-4.70Q327.59-3.48 327.99-2.68L327.99-2.68L327.99-2.68Q328.39-1.88 329.47-1.88L329.47-1.88L329.47-1.88Q330.55-1.88 331.23-2.40L331.23-2.40L331.23-2.40Q331.91-2.91 332.43-4.14L332.43-4.14L332.43-4.14Q333.37-6.30 334.12-10.32L334.12-10.32L334.12-10.32Q334.88-14.34 334.95-16.07L334.95-16.07L334.95-16.07Q335.02-17.81 335.02-19.11L335.02-19.11L335.02-19.11Q335.02-20.40 334.64-21.24L334.64-21.24L334.64-21.24Q334.26-22.09 333.21-22.09L333.21-22.09L333.21-22.09Q332.15-22.09 331.44-21.43L331.44-21.43L331.44-21.43Q330.74-20.77 330.18-19.50ZM360.54-16.50L360.54-16.50L360.54-16.50Q361.19-18.24 361.19-19.74L361.19-19.74L361.19-19.74Q361.19-22.51 358.94-22.51L358.94-22.51L358.94-22.51Q357.76-22.51 356.80-21.46L356.80-21.46L356.80-21.46Q355.84-20.40 355.84-19.08L355.84-19.08L355.84-19.08Q355.84-18.14 356.59-17.39L356.59-17.39L356.59-17.39Q357.67-16.36 360.44-14.66L360.44-14.66L360.44-14.66Q363.22-12.97 364.27-11.59L364.27-11.59L364.27-11.59Q365.33-10.20 365.33-8.30L365.33-8.30L365.33-8.30Q365.33-6.39 364.41-4.65L364.41-4.65L364.41-4.65Q363.50-2.91 361.85-1.69L361.85-1.69L361.85-1.69Q358.33 0.94 352.69 0.94L352.69 0.94L352.69 0.94Q349.63 0.94 347.28-0.66L347.28-0.66L347.28-0.66Q344.93-2.21 344.93-4.04L344.93-4.04L344.93-4.04Q344.93-5.88 346.27-6.96L346.27-6.96L346.27-6.96Q347.61-8.04 349.59-8.04L349.59-8.04L349.59-8.04Q351.56-8.04 352.78-7.29L352.78-7.29L352.78-7.29Q352.17-5.73 352.17-4.70L352.17-4.70L352.17-4.70Q352.17-1.60 354.80-1.60L354.80-1.60L354.80-1.60Q355.93-1.60 356.68-2.30L356.68-2.30L356.68-2.30Q357.44-3.01 357.44-4.23L357.44-4.23L357.44-4.23Q357.44-6.63 353.39-9.16L353.39-9.16L353.39-9.16Q350.10-11.33 349.35-12.17L349.35-12.17L349.35-12.17Q348.08-13.68 348.08-15.56L348.08-15.56L348.08-15.56Q348.08-17.44 348.98-19.22L348.98-19.22L348.98-19.22Q349.87-21.01 351.51-22.28L351.51-22.28L351.51-22.28Q354.94-24.91 360.91-24.91L360.91-24.91L360.91-24.91Q363.97-24.91 365.78-23.69L365.78-23.69L365.78-23.69Q367.59-22.47 367.59-20.40L367.59-20.40L367.59-20.40Q367.59-18.33 366.34-17.16L366.34-17.16L366.34-17.16Q365.10-15.98 362.84-15.98L362.84-15.98L362.84-15.98Q361.29-15.98 360.54-16.50Z" fill="url(#editing-sticker-gradient)" stroke="#2d2b5f" stroke-width="2"></path></g></g><style>text {
  font-size: 64px;
  font-family: Arial Black;
  dominant-baseline: central;
  text-anchor: middle;
}</style></svg>